# xmcd CD database file
#
# Track frame offsets:
#	150
#	19965
#	40231
#	77944
#	93185
#	114015
#	135951
#	146230
#	164840
#	197939
#	212946
#	228771
#	283016
#	308130
#	331030
#	349027
#
# Disc length: 4865 seconds
#
# Revision: 0
# Processed by: cddbd v1.5.1PL2 Copyright (c) Steve Scherf et al.
# Submitted via: Feurio! 1.68 - http://www.feurio.com
#
DISCID=e312ff10
DTITLE=Buddy Guy - The Blues-Guy
DYEAR=1900
DGENRE=Blues
TTITLE0=Damn Right, I've Got The Blues
TTITLE1=Rollin' And Tumblin' ( mit Junior Wells )
TTITLE2=Five Long Years
TTITLE3=Some Kind of Wonderful
TTITLE4=Mustang Sally ( mit Jeff Beck )
TTITLE5=Strange Brew
TTITLE6=I Got My Eyes On You
TTITLE7=Bad Bad Whiskey ( mit Junior Wells )
TTITLE8=Baby Please Don't Leave Me
TTITLE9=Done Got Old
TTITLE10=Sweet Black Girl ( mit Junior Wells )
TTITLE11=I Gotta Try You Girl
TTITLE12=It's A Jungle Out There
TTITLE13=She Got The Devil In Her
TTITLE14=Stay All Night
TTITLE15=Catfish Blues ( mit Junior Wells )
EXTD=
EXTT0=
EXTT1=
EXTT2=
EXTT3=
EXTT4=
EXTT5=
EXTT6=
EXTT7=
EXTT8=
EXTT9=
EXTT10=
EXTT11=
EXTT12=
EXTT13=
EXTT14=
EXTT15=
PLAYORDER=
